<?xml version="1.0" standalone="no"?>
<!DOCTYPE svg PUBLIC "-//W3C//DTD SVG 20010904//EN"
 "http://www.w3.org/TR/2001/REC-SVG-20010904/DTD/svg10.dtd">
<svg version="1.0" xmlns="http://www.w3.org/2000/svg"
 width="500.000000pt" height="500.000000pt" viewBox="0 0 500.000000 500.000000"
 preserveAspectRatio="xMidYMid meet">

<g transform="translate(0.000000,500.000000) scale(0.100000,-0.100000)"
fill="#000000" stroke="none">
<path d="M1072 3180 c-9 -17 -26 -33 -37 -35 -11 -3 -101 -6 -200 -8 -200 -2
-235 -12 -305 -80 -125 -122 -97 -372 50 -447 l37 -19 6 -167 c4 -92 7 -215 7
-274 0 -127 4 -132 88 -134 99 -2 95 -11 86 184 l-7 170 101 0 c77 0 103 3
109 14 4 8 6 56 3 108 l-5 93 -102 3 -103 3 0 58 0 59 58 6 c79 9 181 5 191
-8 5 -6 11 -152 15 -325 7 -379 2 -361 111 -361 65 0 76 3 86 21 l11 21 12
-23 c10 -20 20 -24 66 -27 94 -5 92 -11 79 235 -6 117 -9 220 -7 229 2 10 41
-83 88 -206 47 -122 90 -230 96 -238 9 -13 30 -15 110 -13 54 1 101 4 104 6 4
2 12 43 19 90 l13 85 63 0 63 0 17 -79 c10 -43 20 -83 24 -88 3 -6 47 -13 96
-17 137 -10 130 -26 119 250 -6 126 -6 231 -2 234 4 3 2 24 -5 45 l-12 40 -3
-55 c-4 -76 -8 -88 -28 -68 -12 11 -13 21 -7 33 11 20 5 65 -9 65 -5 0 -6 -5
-2 -11 3 -6 2 -14 -3 -18 -5 -3 -19 -26 -31 -51 -19 -39 -22 -41 -22 -19 0 15
6 42 14 60 16 40 15 70 -3 96 -7 10 0 3 17 -15 23 -26 31 -30 35 -18 4 9 2 16
-4 16 -6 0 -9 7 -5 15 8 22 -14 80 -25 63 -7 -10 -9 -8 -10 7 -3 35 -4 40 -12
51 -10 17 -1 117 13 144 11 20 10 22 -4 17 -10 -4 -15 -3 -11 3 3 6 23 10 45
10 33 0 37 -3 33 -19 -3 -13 2 -21 16 -26 26 -8 43 -38 35 -59 -4 -11 -1 -16
10 -16 9 0 16 -4 16 -9 0 -5 -15 -9 -32 -9 -18 0 -44 -5 -58 -11 -21 -9 -14
-10 39 -9 61 2 65 0 71 -23 4 -13 14 -38 23 -55 16 -30 15 -32 -8 -42 -21 -10
-25 -18 -25 -58 0 -30 8 -59 21 -80 11 -19 18 -38 14 -44 -3 -5 1 -10 9 -10 9
0 16 -6 16 -13 0 -7 14 -20 32 -28 17 -8 33 -19 35 -25 4 -11 -85 -70 -92 -62
-1 1 -5 13 -9 24 -6 19 -1 23 31 33 l38 11 -42 -5 c-25 -3 -44 -1 -44 5 -2 16
-5 23 -27 70 -42 90 -20 20 62 -199 46 -123 90 -227 98 -232 8 -4 36 -5 64 -1
l49 7 5 140 c3 77 7 128 8 114 3 -39 39 -137 68 -186 15 -26 46 -57 72 -75 40
-25 55 -29 94 -25 89 8 149 60 192 167 14 34 14 34 15 -47 1 -77 3 -83 24 -88
17 -5 164 -3 387 4 8 0 50 -2 92 -5 70 -5 78 -4 90 15 17 27 26 27 30 -1 3
-21 9 -23 66 -26 36 -2 69 2 77 8 10 9 12 41 8 146 -3 73 -3 134 0 134 9 0 33
-57 79 -190 69 -199 138 -303 223 -336 74 -28 160 1 199 67 18 30 22 119 6
135 -8 8 3 16 34 28 85 33 122 80 162 211 26 84 27 381 1 471 -38 138 -81 203
-152 229 -95 37 -194 -11 -251 -120 -17 -33 -34 -71 -38 -85 l-8 -25 -7 30
c-13 52 -48 121 -72 144 -13 13 -42 32 -64 43 -35 19 -50 20 -150 14 -84 -5
-113 -11 -122 -23 -12 -15 -14 -15 -30 -1 -23 20 -144 34 -169 20 -14 -8 -23
-7 -34 2 -11 9 -63 10 -200 6 l-185 -5 -5 -70 -5 -70 -16 36 c-38 83 -135 140
-211 125 -47 -9 -99 -47 -128 -93 l-24 -39 -43 24 c-42 23 -43 25 -42 75 0 40
2 47 9 31 13 -32 24 -36 75 -23 53 13 62 27 45 68 -16 39 -51 70 -96 86 -27 9
-41 20 -44 37 -8 32 -42 31 -51 -2 -7 -24 -7 -24 -8 -2 -1 17 -7 22 -26 22
-20 0 -25 -5 -25 -25 0 -17 -9 -29 -29 -40 -43 -22 -71 -73 -71 -131 0 -57 22
-99 74 -140 34 -28 36 -32 36 -92 l0 -62 -27 6 c-16 4 -31 9 -34 13 -3 3 -30
66 -59 139 l-52 132 -59 0 c-39 0 -61 -4 -64 -12 -3 -7 -8 -114 -12 -237 l-8
-225 -60 237 -59 237 -47 0 c-43 0 -79 -17 -79 -38 0 -17 -42 -239 -65 -347
-14 -65 -25 -131 -25 -145 0 -20 -2 -22 -10 -10 -6 9 -10 123 -10 270 0 140
-4 261 -9 269 -12 18 -129 11 -142 -10 -12 -19 -11 -111 2 -264 6 -70 9 -129
6 -131 -2 -2 -23 44 -46 103 -23 60 -61 152 -84 206 l-41 98 -66 -3 -65 -3 -5
-35 -5 -34 -12 27 c-16 34 -48 47 -117 47 -39 0 -61 -6 -80 -21 -21 -16 -26
-17 -26 -5 0 8 -5 18 -10 21 -19 11 -373 5 -387 -7 -7 -6 -13 -31 -13 -59 0
-51 -12 -63 -30 -30 -15 29 -12 93 6 119 41 59 100 63 308 22 232 -47 336 -9
336 121 0 72 -57 129 -130 129 -24 0 -35 -7 -48 -30z m106 0 c18 -11 32 -28
32 -39 0 -40 -32 -92 -78 -126 -43 -33 -52 -35 -103 -32 -67 4 -111 31 -139
87 -11 22 -20 43 -20 47 0 4 39 8 87 8 l86 1 30 37 c35 42 57 46 105 17z
m-373 -60 c3 -5 18 -10 33 -11 25 -1 24 -2 -8 -11 -19 -5 -47 -10 -62 -9 -18
0 -29 -6 -33 -19 -7 -23 -75 -81 -86 -74 -4 2 -10 0 -14 -6 -4 -6 -12 -7 -18
-4 -7 4 -9 4 -5 -1 4 -4 -1 -20 -12 -35 -26 -36 -26 -105 -1 -146 11 -17 38
-44 62 -60 45 -31 65 -59 32 -47 -17 6 -17 5 1 -15 18 -21 18 -22 -5 -47 -25
-25 -71 -33 -98 -16 -11 7 -12 13 -3 23 9 11 5 18 -16 33 -58 42 -102 99 -102
131 0 35 23 63 36 43 4 -7 3 -9 -4 -5 -16 10 -25 -11 -13 -31 6 -11 11 -13 11
-5 0 7 5 10 10 7 6 -3 10 -1 10 6 0 8 4 8 15 -1 18 -15 3 -40 -23 -40 -19 0
-8 -13 14 -16 8 -1 20 9 27 23 10 23 9 28 -11 41 l-23 15 23 24 c18 19 20 27
11 41 -6 9 -20 17 -31 16 -12 0 -19 3 -16 8 3 4 -2 8 -10 8 -9 0 -16 7 -16 15
0 14 11 19 38 16 6 -1 12 5 12 14 0 8 -4 15 -10 15 -5 0 -10 5 -10 11 0 7 10
9 24 5 25 -6 46 9 24 17 -7 2 18 8 55 12 66 7 68 8 65 34 -3 24 0 26 40 29 23
2 42 7 42 13 0 12 37 12 45 -1z m1627 -32 c2 -13 10 -23 18 -23 8 0 16 10 18
23 5 30 22 28 22 -3 0 -19 5 -25 21 -25 52 0 106 -43 123 -97 6 -19 2 -23 -31
-32 -54 -15 -58 -14 -74 22 -15 35 -34 39 -33 7 0 -11 1 -42 2 -69 l2 -49 71
-42 c56 -33 75 -50 90 -84 27 -60 23 -146 -7 -146 -11 0 -13 10 -11 35 4 35 4
35 -13 17 -14 -15 -16 -27 -10 -53 4 -19 8 -29 9 -23 1 6 7 11 15 11 13 0 13
-4 0 -29 -17 -34 -65 -65 -111 -74 -31 -6 -40 -21 -34 -56 0 -5 -3 -8 -8 -8
-5 0 -12 14 -16 31 -5 21 -12 29 -23 27 -10 -2 -18 -9 -18 -16 -1 -6 -2 -16
-3 -22 -3 -25 -21 -7 -21 21 0 20 4 28 12 23 7 -4 8 -3 4 4 -4 6 -26 17 -49
23 -23 7 -50 19 -59 27 -19 16 -25 48 -7 36 6 -3 3 5 -6 20 -10 15 -16 28 -14
29 2 2 13 9 23 17 18 13 19 13 11 0 -12 -20 -15 -39 -6 -44 4 -3 13 11 20 30
17 46 28 43 42 -11 20 -80 29 -59 29 68 0 121 -1 124 -24 135 -13 6 -24 17
-23 24 1 37 -4 46 -23 41 -15 -4 -22 2 -30 22 -15 39 -13 86 3 79 8 -3 20 2
27 11 11 13 11 18 0 28 -10 10 -11 9 -5 -2 5 -10 4 -12 -4 -7 -11 7 -8 18 12
44 8 10 12 10 18 1 5 -9 13 -7 30 5 16 11 19 16 9 17 -11 0 -11 2 -2 6 6 2 12
16 12 29 0 30 18 32 22 2z m-1560 -45 c10 -9 18 -27 18 -40 0 -23 -2 -24 -47
-17 -27 3 -52 9 -56 11 -10 6 -5 46 8 55 18 13 58 9 77 -9z m48 -63 c0 -5 -2
-10 -4 -10 -3 0 -8 5 -11 10 -3 6 -1 10 4 10 6 0 11 -4 11 -10z m230 -14 c0
-3 -4 -8 -10 -11 -5 -3 -10 -1 -10 4 0 6 5 11 10 11 6 0 10 -2 10 -4z m-665
-46 c3 -5 1 -10 -4 -10 -6 0 -11 5 -11 10 0 6 2 10 4 10 3 0 8 -4 11 -10z
m2251 -8 c-3 -5 16 -7 43 -4 32 3 58 -1 78 -11 32 -17 93 -81 93 -98 0 -6 -12
4 -27 23 -34 41 -47 50 -52 37 -2 -6 7 -22 20 -36 13 -15 19 -24 14 -20 -6 3
-17 2 -25 -3 -18 -11 -3 -30 26 -34 11 -2 21 -11 23 -21 2 -12 -2 -16 -11 -13
-8 3 -22 0 -33 -8 -18 -13 -18 -14 4 -14 18 0 22 -4 18 -20 -3 -13 1 -21 14
-25 27 -9 24 -24 -7 -35 -44 -17 -63 -12 -69 18 -3 15 -14 44 -24 65 -15 29
-16 37 -6 37 22 0 38 37 20 44 -27 10 -49 -6 -47 -34 0 -3 -13 -13 -29 -22
-20 -12 -29 -13 -29 -5 0 7 -9 29 -20 50 -26 47 -25 65 2 94 15 16 17 23 7 23
-12 0 -11 2 1 10 19 12 23 12 16 2z m1567 -20 c19 -16 24 -82 6 -82 -19 0 -5
-44 16 -50 19 -4 20 -8 8 -30 -11 -21 -13 -22 -13 -5 0 14 -3 16 -11 8 -9 -9
-18 -8 -35 3 -40 27 -63 10 -96 -71 -11 -29 -13 -38 -17 -78 0 -10 -6 -15 -12
-11 -6 4 -8 17 -3 33 12 45 14 90 3 97 -6 4 -4 13 7 25 13 15 18 38 18 92 l1
72 35 12 c39 13 66 9 93 -15z m-3443 8 c0 -5 7 -10 16 -10 9 0 12 -5 8 -12 -4
-7 -3 -8 4 -4 7 4 12 14 12 22 0 21 16 17 45 -11 26 -27 34 -78 13 -91 -8 -5
-9 0 -6 14 5 19 2 22 -25 21 -25 -1 -27 -3 -9 -6 17 -3 22 -9 17 -20 -3 -9 0
-20 7 -24 22 -14 -5 -44 -43 -47 -24 -2 -46 5 -72 22 -41 28 -50 25 -14 -5
l22 -18 -22 -1 c-15 0 -25 -8 -28 -22 -7 -27 -55 -55 -55 -32 0 8 5 14 11 14
5 0 7 5 4 10 -3 6 0 10 7 11 9 0 9 2 1 5 -8 4 -9 15 -2 36 5 17 6 42 3 55 -4
14 -2 23 5 23 6 0 11 15 11 34 0 30 4 35 28 39 50 8 62 7 62 -3z m120 6 c0 -2
-7 -6 -15 -10 -8 -3 -15 -1 -15 4 0 6 7 10 15 10 8 0 15 -2 15 -4z m37 -16
c-1 -11 -5 -20 -9 -20 -4 0 -8 9 -8 20 0 11 4 20 9 20 6 0 9 -9 8 -20z m306
13 c-10 -3 -10 -10 -2 -26 10 -21 9 -21 -5 -3 -16 20 -13 37 7 35 9 0 9 -2 0
-6z m90 -7 c3 -8 -1 -29 -10 -47 -13 -25 -14 -36 -4 -51 6 -10 10 -22 7 -26
-3 -4 12 -7 32 -5 32 2 34 1 12 -6 l-25 -9 26 -1 c24 -1 30 -12 85 -153 l59
-152 5 74 5 75 17 -30 17 -30 1 50 c0 70 17 121 50 158 l29 32 1 -83 c0 -49
-5 -90 -12 -102 -9 -15 -10 -23 -2 -28 6 -4 12 -42 13 -87 l2 -80 -30 29 -31
30 0 -29 c0 -43 -37 -111 -78 -145 -20 -17 -40 -30 -44 -30 -3 0 -12 17 -19
38 -6 20 -14 42 -18 47 -3 6 -24 57 -46 115 -23 58 -45 103 -50 100 -6 -3 -9
-9 -7 -13 10 -31 10 -112 -1 -119 -9 -6 -9 -8 1 -8 8 0 12 -16 12 -48 0 -40
-3 -48 -17 -48 -10 1 -18 -3 -18 -9 0 -5 6 -10 14 -10 8 0 16 -5 18 -12 5 -14
-51 -1 -73 18 -8 6 -14 8 -14 5 0 -4 -5 -4 -10 -1 -8 5 -7 11 1 21 8 10 8 17
-3 28 -8 8 -15 37 -17 68 -2 53 -1 54 34 68 19 7 35 18 35 22 0 5 4 7 8 4 4
-2 9 5 9 17 2 19 1 20 -8 5 -5 -9 -23 -24 -41 -32 -37 -19 -38 -19 -38 -6 0 6
7 10 15 10 18 0 30 23 39 72 4 20 13 39 22 42 8 3 13 2 9 -3 -8 -14 4 -38 21
-38 8 0 13 5 11 11 -3 6 -10 10 -17 8 -7 -2 -9 5 -5 18 5 15 2 20 -13 20 -11
0 -25 7 -32 15 -7 8 -21 15 -31 15 -16 0 -19 8 -19 54 0 30 4 66 10 80 9 24
10 25 43 11 l34 -14 11 36 c6 21 10 38 9 39 -1 1 -15 9 -32 17 l-30 16 36 1
c23 0 39 -5 42 -14z m217 5 c0 -12 -29 -35 -36 -28 -11 10 5 37 21 37 8 0 15
-4 15 -9z m86 -2 c3 -6 2 -15 -4 -21 -7 -7 -7 -16 0 -27 8 -14 1 -27 -40 -69
-28 -28 -53 -65 -57 -82 -4 -16 -11 -30 -16 -30 -14 0 -11 104 4 119 10 11 9
12 -3 6 -8 -4 1 10 21 31 20 21 40 49 44 62 7 23 39 30 51 11z m236 -20 c-3
-24 -1 -30 8 -24 9 5 10 2 5 -14 -4 -12 -2 -21 4 -21 6 0 11 -4 11 -9 0 -5
-27 3 -60 17 -32 14 -54 29 -49 33 6 3 10 9 10 13 -4 25 8 32 55 35 18 1 20
-4 16 -30z m1084 17 c8 -8 14 -23 15 -33 1 -13 3 -11 9 7 5 17 8 19 9 8 1 -10
5 -18 10 -18 14 0 21 28 8 33 -7 3 5 5 26 4 38 0 38 -1 15 -14 l-23 -14 25 7
c14 4 28 11 32 17 3 5 51 12 107 15 l100 5 -1 -46 c0 -26 -3 -45 -7 -43 -3 2
-14 -2 -24 -9 -16 -12 -16 -13 2 -18 11 -3 22 0 25 7 2 6 5 -8 5 -31 1 -39 -1
-43 -22 -43 -15 0 -28 9 -36 23 -11 21 -11 21 -6 0 6 -20 3 -21 -64 -21 -60 0
-71 3 -80 22 -11 21 -12 21 -7 -1 2 -13 0 -23 -5 -23 -6 0 -9 -31 -7 -72 l3
-73 93 -3 c90 -3 92 -3 92 -27 0 -14 -6 -25 -12 -26 -10 0 -10 -2 0 -6 20 -8
14 -20 -18 -33 -22 -9 -27 -16 -21 -24 8 -9 -12 -20 -73 -40 l-84 -28 -7 -41
c-3 -23 -7 -61 -8 -84 -1 -38 -3 -41 -17 -28 -20 18 -41 2 -33 -24 4 -13 3
-13 -5 -2 -8 11 -4 23 12 45 40 54 49 91 42 164 -4 37 -8 75 -9 84 -1 9 -6 14
-11 11 -6 -4 -6 1 -2 13 4 10 4 16 1 13 -8 -8 -78 60 -83 80 -2 9 -6 57 -9
107 -5 87 -4 92 16 99 12 3 18 11 15 17 -4 6 -9 5 -15 -3 -4 -7 -11 -10 -15
-6 -10 9 28 37 40 30 5 -4 6 -1 1 6 -4 7 -16 10 -27 8 -16 -4 -17 -3 -7 9 14
17 17 17 35 0z m822 -1 c25 -7 30 -25 7 -25 -8 0 -16 -8 -16 -17 -1 -17 -2
-17 -6 -1 -3 14 -15 17 -51 17 -76 -2 -82 -6 -82 -50 0 -37 2 -39 30 -39 28 0
30 3 32 38 l1 37 4 -37 c6 -59 65 -63 76 -5 4 19 4 18 6 -5 1 -21 5 -25 21
-21 11 3 27 14 34 25 11 15 15 16 19 5 3 -8 1 -20 -4 -26 -6 -8 -5 -8 3 -1 22
18 36 11 51 -27 20 -53 31 -133 18 -133 -20 0 -51 -40 -51 -64 0 -13 9 -34 19
-47 19 -24 19 -24 -2 -62 -12 -21 -36 -47 -54 -58 -18 -12 -30 -25 -27 -31 4
-6 -2 -8 -17 -4 -20 4 -19 3 3 -6 32 -14 49 -43 19 -33 -10 3 -29 1 -42 -4
-18 -8 -20 -10 -6 -10 14 -1 17 -6 12 -23 -4 -14 -3 -18 2 -11 6 8 14 9 23 3
8 -6 25 -10 38 -10 12 0 22 -4 22 -9 0 -5 -10 -6 -22 -3 -22 5 -22 5 -5 -12 9
-10 15 -21 12 -26 -3 -4 3 -6 13 -3 15 3 23 -7 40 -48 26 -61 27 -69 7 -69 -8
0 -15 -5 -15 -11 0 -5 -4 -7 -10 -4 -5 3 -10 1 -10 -5 0 -6 14 -9 34 -7 48 6
64 -22 31 -53 -14 -13 -32 -45 -40 -71 -9 -27 -20 -49 -24 -49 -4 0 -17 20
-29 45 -13 28 -17 45 -10 45 6 0 8 3 5 7 -4 3 1 15 10 26 17 19 17 20 1 14
-12 -4 -15 -2 -11 8 3 8 10 12 16 8 6 -4 7 -1 2 8 -5 7 -8 31 -7 54 2 45 -25
108 -49 113 -9 2 -21 -9 -28 -25 -13 -29 -21 -24 -35 25 -6 16 -3 22 8 22 24
0 19 17 -7 24 -13 3 -29 17 -37 31 -23 42 -30 28 -30 -59 l0 -83 -25 5 c-18 3
-25 0 -25 -12 0 -10 9 -16 25 -16 24 0 25 -3 25 -54 0 -49 -2 -54 -20 -49 -12
3 -20 0 -20 -6 0 -8 -12 -11 -32 -9 -26 2 -33 7 -31 23 1 11 -4 23 -10 27 -9
6 -8 10 2 17 8 5 16 15 18 23 1 7 8 37 14 67 10 42 18 57 43 72 17 10 26 19
21 19 -6 0 -21 -7 -33 -16 -13 -9 -26 -14 -29 -11 -9 10 38 67 55 67 15 0 15
2 2 10 -20 13 -33 13 -25 -1 4 -6 1 -9 -7 -7 -7 2 -15 -1 -16 -7 -2 -5 -11
-19 -21 -30 -27 -30 -32 -43 -21 -50 6 -4 9 -3 8 2 -2 4 0 9 5 11 11 3 9 -5
-8 -38 -18 -35 -21 -36 -21 -11 0 11 4 17 8 15 12 -8 9 11 -3 23 -9 9 -6 18 9
38 l21 27 -25 21 c-23 20 -25 29 -27 122 -2 103 3 165 13 165 3 0 11 -5 17
-11 8 -8 11 -6 10 7 -1 11 4 18 11 16 8 -1 11 2 8 6 -3 5 -16 8 -29 7 -18 -2
-23 3 -25 21 -2 26 13 40 24 23 4 -8 3 -9 -4 -5 -7 4 -12 1 -12 -8 0 -9 3 -16
8 -17 4 0 16 -2 28 -3 17 -2 21 4 23 40 1 30 -3 43 -14 47 -10 5 -15 0 -16
-16 -1 -14 -3 -16 -6 -6 -2 9 2 34 10 57 12 34 12 39 0 35 -8 -3 -13 -1 -11 5
2 6 -6 18 -17 27 -20 16 -20 16 1 6 12 -6 25 -7 28 -3 4 4 16 -4 25 -17 l19
-24 0 41 c1 41 -17 60 -41 45 -7 -4 -6 0 1 10 18 22 139 30 200 12z m-3154
-42 c-2 -12 0 -23 6 -23 6 0 8 -5 5 -10 -4 -6 -11 -8 -16 -5 -5 4 -9 -4 -9
-17 0 -18 2 -20 10 -8 5 8 10 11 10 5 0 -5 -4 -17 -10 -25 -14 -22 -24 12 -16
58 5 27 4 33 -3 22 -14 -20 -14 -7 1 25 13 30 29 15 22 -22z m2851 37 c8 -13
-75 -13 -95 0 -11 7 0 10 37 10 28 0 55 -4 58 -10z m820 -41 c4 -11 10 -17 15
-14 11 7 51 -91 53 -130 1 -18 5 -31 10 -28 4 2 8 -6 9 -19 6 -90 6 -95 -8
-95 -9 0 -13 6 -9 16 3 8 -6 2 -20 -13 -15 -17 -32 -26 -41 -22 -8 3 -13 2
-10 -3 3 -5 -5 -16 -19 -25 -24 -16 -25 -15 -25 4 0 14 12 25 41 36 28 12 38
21 35 31 -15 37 -17 63 -8 80 7 13 6 24 -3 37 -8 10 -17 39 -21 65 -3 25 -17
65 -29 88 l-23 42 24 -15 c13 -9 26 -24 29 -35z m-3234 17 c17 15 19 16 14 2
-4 -11 1 -20 14 -27 29 -16 34 -44 16 -86 -8 -21 -15 -48 -15 -61 0 -14 -9
-28 -22 -35 -13 -7 -26 -17 -30 -23 -5 -8 -8 -7 -8 2 0 19 -20 14 -21 -5 -1
-12 -4 -9 -8 7 -5 14 -4 29 1 35 13 15 9 78 -7 99 -21 28 -19 39 13 72 18 19
28 25 30 16 3 -10 8 -9 23 4z m2349 -14 c0 -13 -2 -14 -9 -3 -5 8 -11 9 -15 3
-7 -12 21 -25 36 -16 5 3 7 12 4 20 -4 9 2 14 17 14 18 0 19 -2 7 -10 -13 -9
-13 -11 0 -20 8 -5 20 -10 27 -10 6 0 14 -3 16 -7 3 -5 -20 -8 -51 -8 -32 -1
-68 -3 -82 -5 -20 -4 -26 0 -28 18 -2 12 2 22 8 22 6 0 9 3 7 8 -3 4 10 8 29
9 27 2 34 -1 34 -15z m-2175 -2 c3 -5 1 -10 -4 -10 -6 0 -11 5 -11 10 0 6 2
10 4 10 3 0 8 -4 11 -10z m2259 2 c3 -5 -1 -9 -9 -9 -8 0 -15 4 -15 9 0 4 4 8
9 8 6 0 12 -4 15 -8z m-2565 -81 c1 -61 -5 -48 -12 24 -3 36 -2 52 3 40 5 -11
9 -40 9 -64z m3084 2 c-7 -62 -22 -79 -19 -20 3 40 11 67 20 67 2 0 1 -21 -1
-47z m-2226 31 c-3 -3 -12 -4 -19 -1 -8 3 -5 6 6 6 11 1 17 -2 13 -5z m1675
-16 l26 -10 -24 -35 c-13 -20 -24 -40 -24 -45 0 -5 -11 -13 -25 -18 -29 -11
-33 -37 -7 -43 13 -3 10 -8 -15 -23 -18 -10 -33 -23 -33 -27 0 -5 23 -31 50
-59 52 -52 65 -77 31 -58 -27 14 -31 13 -31 -8 0 -10 11 -25 25 -32 39 -21 29
-52 -20 -67 -54 -17 -62 -16 -68 7 -3 13 0 20 9 20 8 0 14 5 14 12 0 6 -3 8
-7 5 -3 -4 -12 -2 -19 4 -10 8 -11 16 -4 30 6 10 7 40 4 66 -3 26 -7 71 -9 98
-2 28 -7 71 -12 97 -9 42 -7 50 11 67 12 11 32 24 46 29 25 9 32 9 82 -10z
m88 -40 l-1 -63 -14 33 c-8 19 -13 43 -11 55 3 12 5 25 5 30 1 4 6 7 11 7 6 0
10 -27 10 -62z m514 36 c4 -9 4 -19 1 -22 -6 -6 -35 18 -35 29 0 16 28 10 34
-7z m-2180 -14 c18 -7 24 -14 19 -26 -4 -12 -3 -15 5 -10 7 4 12 1 12 -9 0
-14 -2 -14 -23 0 -25 16 -93 13 -128 -6 -16 -8 -19 -6 -17 17 2 14 8 29 15 31
7 3 11 9 8 13 -6 10 77 3 109 -10z m-684 -296 l0 -287 -20 26 c-19 23 -20 40
-20 243 0 186 3 225 18 261 9 24 18 43 20 43 1 0 2 -129 2 -286z m2280 252
c-5 -15 -10 -41 -10 -57 0 -22 -5 -29 -19 -29 -17 0 -18 4 -12 28 11 37 41 95
47 89 3 -2 0 -16 -6 -31z m-860 -14 c0 -15 -2 -15 -10 -2 -13 20 -13 33 0 25
6 -3 10 -14 10 -23z m103 10 c9 -10 21 -42 27 -72 6 -29 12 -56 15 -58 3 -3
33 7 67 21 34 15 62 26 64 24 3 -3 10 -337 6 -337 -1 0 -25 11 -52 25 -63 32
-78 31 -86 -2 -18 -80 -25 -101 -42 -116 -16 -15 -21 -15 -39 -2 -35 24 -48
97 -48 260 0 168 6 211 36 249 24 31 31 32 52 8z m-813 -49 l21 -27 -21 -8
c-22 -8 -22 -35 0 -30 19 4 40 -18 40 -43 0 -18 -8 -25 -37 -33 -27 -7 -31
-10 -15 -11 13 -1 20 -5 17 -11 -3 -5 1 -10 9 -10 22 0 20 -17 -3 -30 -24 -12
-49 -4 -55 18 -13 47 -16 103 -7 119 7 15 6 22 -7 30 -14 8 -21 5 -36 -15 -11
-14 -14 -22 -6 -17 10 6 11 0 7 -26 -4 -19 -9 -54 -13 -79 -9 -66 -12 -73 -26
-60 -7 6 -22 17 -33 25 -20 15 -20 15 2 34 18 15 20 20 9 24 -12 5 -13 12 -4
35 10 25 9 35 -5 56 -30 45 -5 87 63 106 31 9 71 -10 100 -47z m2304 2 c18
-43 20 -73 20 -225 -1 -130 -4 -185 -16 -214 -31 -82 -72 -73 -101 20 -36 119
-31 368 9 445 12 24 21 30 42 27 21 -2 30 -12 46 -53z m-923 23 c7 -13 13
-101 15 -245 l3 -223 -77 0 c-42 0 -94 -3 -114 -6 l-38 -7 0 82 0 81 85 0 c79
0 86 2 94 23 11 29 13 158 3 174 -5 8 -41 13 -97 15 l-90 3 -3 57 c-3 66 -7
64 125 67 75 1 83 -1 94 -21z m226 -239 c3 -260 2 -262 -17 -244 -19 17 -20
32 -20 242 0 208 6 263 28 263 4 0 8 -118 9 -261z m505 239 c-7 -7 -12 -8 -12
-2 0 6 3 14 7 17 3 4 9 5 12 2 2 -3 -1 -11 -7 -17z m-2881 -21 c-6 -8 -9 -16
-6 -19 3 -2 -2 -5 -10 -5 -13 0 -13 3 2 19 19 21 31 25 14 5z m2879 -23 c0 -9
5 -12 12 -8 7 4 8 3 4 -5 -4 -6 -11 -9 -16 -6 -5 3 -12 0 -16 -6 -4 -8 -9 -7
-15 2 -14 23 -10 32 7 18 15 -12 16 -11 9 10 -5 16 -4 21 4 17 6 -4 11 -14 11
-22z m-3328 9 c-10 -4 -10 -8 -1 -19 7 -8 9 -17 5 -21 -3 -3 -6 0 -6 8 0 9 -3
10 -8 4 -4 -6 -24 -21 -45 -33 l-39 -22 37 45 c21 25 45 45 54 44 11 0 12 -2
3 -6z m434 -26 c9 3 14 -2 14 -14 0 -11 -7 -20 -15 -20 -12 0 -12 3 -2 16 8
10 9 13 0 8 -6 -4 -14 -3 -18 3 -4 7 -13 7 -28 -1 -21 -10 -21 -10 -3 5 12 10
24 12 29 7 5 -5 16 -7 23 -4z m134 -1 c0 -9 -7 -12 -20 -9 -11 3 -17 9 -14 14
8 14 34 10 34 -5z m-220 -29 c-25 -20 -14 -75 20 -92 27 -14 29 -14 39 13 11
27 11 27 5 -5 -4 -25 -1 -32 14 -37 16 -5 19 -17 21 -71 1 -52 -2 -67 -14 -72
-9 -3 -21 -17 -26 -30 -5 -15 -15 -23 -26 -21 -12 2 -26 -13 -45 -47 l-27 -50
2 100 c1 55 -2 127 -6 160 -6 41 -5 55 2 45 16 -24 21 -7 12 47 -7 46 -6 52
13 62 28 13 34 13 16 -2z m60 -7 c0 -11 -7 -20 -15 -20 -17 0 -18 2 -9 24 9
23 24 20 24 -4z m130 5 c0 -8 -4 -15 -10 -15 -5 0 -10 7 -10 15 0 8 5 15 10
15 6 0 10 -7 10 -15z m-523 -15 c4 -17 14 -20 55 -20 41 0 54 -5 79 -29 16
-16 29 -36 29 -44 0 -8 7 -20 15 -27 13 -11 14 -10 9 5 -6 14 -4 16 6 10 9 -5
11 -4 6 3 -4 7 -2 20 3 29 8 14 10 0 11 -53 0 -54 -4 -73 -15 -78 -8 -3 -19 2
-24 12 -7 11 -11 12 -11 4 0 -8 -9 -12 -22 -10 -18 2 -23 10 -24 36 -1 40 -9
49 -30 31 -10 -8 -14 -22 -10 -40 5 -25 2 -27 -34 -33 -29 -5 -40 -11 -40 -24
0 -10 -5 -23 -12 -30 -9 -9 -9 -12 0 -12 17 0 16 -100 0 -101 -10 0 -10 -2 0
-6 6 -2 12 -21 12 -40 0 -26 -4 -34 -14 -30 -8 3 -17 3 -21 -1 -13 -13 -73 -7
-83 9 -9 14 -5 16 25 13 l35 -3 -25 27 c-21 22 -23 31 -15 52 6 17 6 37 -3 61
-12 38 -6 64 13 53 7 -4 8 -2 4 4 -4 7 0 22 8 33 15 22 12 74 -5 94 -5 5 -9
20 -9 33 0 13 -4 20 -10 17 -16 -10 -11 8 8 31 35 44 81 56 89 24z m2753 -1
c0 -18 -5 -20 -27 -16 -25 5 -26 4 -9 -8 10 -8 24 -11 32 -8 8 3 14 0 14 -6 0
-17 -50 -13 -56 4 -4 8 -9 13 -13 10 -4 -2 -8 2 -8 10 0 7 8 12 18 10 10 -2
23 3 30 11 16 19 19 18 19 -7z m458 -19 c-2 -48 -18 -54 -18 -7 0 30 6 47 17
47 1 0 2 -18 1 -40z m-2801 -2 c-3 -8 -6 -5 -6 6 -1 11 2 17 5 13 3 -3 4 -12
1 -19z m610 0 c-3 -8 -6 -5 -6 6 -1 11 2 17 5 13 3 -3 4 -12 1 -19z m128 -87
c17 -102 14 -111 -32 -111 -26 0 -29 19 -14 97 5 26 13 66 17 88 8 48 9 46 29
-74z m2525 57 c0 -13 -23 -5 -28 10 -2 7 2 10 12 6 9 -3 16 -11 16 -16z m-349
3 c6 10 9 7 10 -11 0 -14 3 -20 5 -13 7 16 34 5 34 -13 0 -10 -14 -14 -49 -14
-59 0 -72 13 -39 40 13 10 25 14 27 8 2 -6 7 -5 12 3z m-1099 -26 c3 -13 1
-22 -3 -19 -9 5 -13 44 -5 44 2 0 6 -11 8 -25z m-932 -100 c20 -70 16 -95 -17
-95 -7 0 -16 -7 -20 -15 -5 -14 -8 -14 -24 1 -15 14 -22 15 -31 6 -9 -9 -7
-12 10 -12 30 0 29 -30 0 -31 -13 0 -18 -3 -13 -5 6 -2 39 0 73 4 34 5 62 5
62 0 0 -4 -20 -8 -45 -8 -42 0 -45 -2 -43 -25 2 -20 8 -25 31 -25 25 0 28 3
24 21 -3 13 -1 19 6 16 7 -3 11 -10 10 -16 -2 -6 5 -11 16 -11 14 0 21 -12 29
-52 6 -34 7 -54 1 -56 -6 -2 -3 -15 6 -28 12 -19 13 -24 2 -24 -7 0 -17 3 -23
8 -5 4 -1 -1 10 -11 19 -17 17 -18 -50 -13 -62 4 -69 7 -72 26 -2 14 0 20 7
16 6 -4 11 -3 11 2 0 6 -6 12 -14 15 -7 3 -19 28 -26 55 l-12 50 -46 4 c-26 2
-59 2 -74 0 -28 -4 -27 0 -44 -127 l-7 -50 -17 87 c-10 48 -25 99 -34 113
l-16 25 32 -1 c28 0 30 -2 13 -9 -18 -8 -17 -9 8 -9 16 -1 26 3 22 9 -4 6 5
10 19 10 21 0 26 5 26 25 0 20 -5 25 -26 25 -14 0 -23 -4 -19 -10 3 -5 -3 -10
-14 -10 -12 0 -21 5 -21 10 0 6 -9 10 -20 10 -23 0 -25 24 -6 85 l12 40 37
-38 c45 -46 49 -41 7 7 -21 23 -27 37 -19 41 14 9 58 -42 59 -67 0 -29 94 -25
130 5 15 12 36 27 46 34 18 12 18 12 0 6 -16 -5 -17 -2 -11 18 8 27 26 52 32
46 2 -3 12 -35 23 -72z m1250 66 c0 -11 -31 -24 -39 -16 -3 3 1 10 9 15 19 12
30 12 30 1z m1069 -17 c3 -16 1 -17 -13 -5 -19 16 -21 34 -3 29 6 -3 14 -13
16 -24z m68 -2 c-16 -15 -19 -15 -27 -2 -7 10 -10 11 -10 3 0 -7 -5 -13 -11
-13 -23 0 -1 25 27 31 37 7 42 3 21 -19z m-1439 2 c12 -8 28 -12 35 -8 9 6 9
4 0 -7 -18 -19 -16 -29 5 -23 10 4 7 -2 -8 -12 -18 -14 -26 -30 -27 -57 -1
-20 -9 -49 -17 -65 -15 -27 -15 -27 -16 25 0 28 -3 58 -6 67 -4 11 0 16 14 16
11 0 22 8 25 20 4 16 1 19 -16 15 -18 -5 -22 -1 -23 20 -2 29 3 31 34 9z
m1132 -5 c0 -5 -7 -9 -15 -9 -15 0 -20 12 -9 23 8 8 24 -1 24 -14z m-3482 -1
c7 -7 12 -23 12 -37 0 -23 -1 -24 -20 -6 -11 10 -20 26 -20 37 0 21 11 23 28
6z m3427 2 c3 -5 1 -10 -4 -10 -6 0 -11 5 -11 10 0 6 2 10 4 10 3 0 8 -4 11
-10z m-1415 -10 c0 -5 -5 -10 -11 -10 -5 0 -7 5 -4 10 3 6 8 10 11 10 2 0 4
-4 4 -10z m629 -19 c-11 -16 -16 -18 -28 -8 -11 9 -13 9 -8 0 4 -6 2 -15 -4
-19 -13 -8 -32 17 -21 28 4 4 20 9 35 10 15 1 27 7 27 12 0 5 3 7 6 4 3 -3 0
-15 -7 -27z m681 -33 c1 -91 25 -212 54 -272 33 -68 73 -105 137 -126 47 -16
50 -19 31 -29 -30 -16 -84 -14 -110 4 -38 27 -82 101 -133 227 -28 66 -56 130
-64 142 -20 27 -19 33 5 41 10 3 29 22 40 41 12 18 26 34 31 34 5 0 9 -28 9
-62z m-1780 12 c0 -34 -3 -40 -20 -40 -18 0 -19 3 -10 20 6 11 8 20 5 20 -3 0
-1 9 5 20 16 29 20 25 20 -20z m1940 -1 c0 -18 -7 -38 -17 -45 -15 -12 -16
-13 -2 -8 10 3 20 0 25 -7 5 -8 3 -10 -7 -4 -11 6 -12 5 -1 -6 6 -7 12 -23 12
-36 0 -21 -2 -22 -20 -11 -18 11 -23 10 -40 -12 -11 -14 -20 -34 -20 -45 0
-11 -5 -27 -10 -35 -7 -11 -10 -3 -10 30 0 49 -12 76 -28 66 -5 -3 -12 0 -15
8 -7 17 35 48 73 56 20 4 25 11 26 38 0 17 -4 32 -9 32 -5 0 -7 -13 -5 -28 4
-28 3 -29 -37 -28 -37 1 -41 3 -31 19 6 9 16 17 23 17 7 0 10 7 7 15 -5 12 3
15 40 15 45 0 46 -1 46 -31z m-1470 6 c0 -8 -2 -15 -4 -15 -2 0 -6 7 -10 15
-3 8 -1 15 4 15 6 0 10 -7 10 -15z m1780 5 c-8 -5 -44 -9 -80 -8 l-65 2 70 6
c39 4 75 7 80 8 6 1 3 -3 -5 -8z m-2470 -15 c-14 -17 -40 -20 -40 -6 0 8 18
16 44 20 5 0 3 -6 -4 -14z m660 5 c0 -5 -4 -10 -10 -10 -5 0 -10 5 -10 10 0 6
5 10 10 10 6 0 10 -4 10 -10z m588 -1 c-2 -6 -8 -10 -13 -10 -5 0 -11 4 -13
10 -2 6 4 11 13 11 9 0 15 -5 13 -11z m-43 -9 c-3 -5 -10 -10 -16 -10 -5 0 -9
5 -9 10 0 6 7 10 16 10 8 0 12 -4 9 -10z m120 0 c-3 -5 -14 -10 -23 -9 -14 0
-13 2 3 9 27 11 27 11 20 0z m1035 -15 c-12 -15 -30 -12 -30 6 0 5 10 9 21 9
18 0 19 -2 9 -15z m54 0 c4 -10 -1 -15 -14 -15 -11 0 -20 7 -20 15 0 8 6 15
14 15 8 0 16 -7 20 -15z m56 0 c0 -8 -7 -15 -15 -15 -8 0 -15 7 -15 15 0 8 7
15 15 15 8 0 15 -7 15 -15z m-1772 -29 c0 -30 -4 -35 -31 -41 -18 -4 -36 -7
-40 -6 -5 1 -6 -3 -2 -9 3 -5 4 -10 1 -10 -2 0 -11 -3 -19 -6 -10 -4 -16 4
-19 25 -3 18 -1 28 6 24 5 -4 7 1 3 10 -4 11 -1 17 8 18 17 2 24 3 45 12 8 3
22 8 30 10 8 3 16 6 17 6 0 1 1 -14 1 -33z m1778 -20 c-3 -12 -8 -41 -11 -62
-21 -143 -96 -256 -166 -250 -18 2 -38 1 -44 -2 -18 -11 -65 -12 -65 -1 0 5 4
8 9 4 6 -3 10 3 10 12 -1 31 10 82 20 101 6 11 8 22 5 25 -3 3 2 4 13 1 34 -8
51 20 69 109 l17 87 75 0 c73 0 74 0 68 -24z m-966 -6 c0 -11 -4 -20 -9 -20
-18 0 -41 12 -41 22 0 6 6 5 15 -2 12 -10 15 -10 15 4 0 9 5 16 10 16 6 0 10
-9 10 -20z m-78 -12 c-7 -7 -12 -8 -12 -2 0 14 12 26 19 19 2 -3 -1 -11 -7
-17z m-1322 -9 c0 -5 -4 -9 -10 -9 -5 0 -10 7 -10 16 0 8 5 12 10 9 6 -3 10
-10 10 -16z m300 5 c0 -8 -5 -12 -10 -9 -6 4 -8 11 -5 16 9 14 15 11 15 -7z
m503 -1 c-2 -7 3 -10 10 -7 8 3 24 -4 37 -14 20 -16 22 -24 16 -65 -5 -30 -11
-45 -18 -41 -7 5 -9 -2 -4 -20 4 -18 3 -25 -3 -21 -6 3 -8 0 -6 -8 8 -21 -52
-98 -70 -90 -12 4 -14 13 -9 36 9 44 6 124 -6 147 -11 21 -13 60 -4 85 8 19
60 17 57 -2z m-691 -40 c4 -42 1 -51 -21 -70 -14 -12 -29 -22 -32 -23 -10 0
-20 61 -12 74 14 21 11 35 -5 29 -10 -4 -13 -2 -8 5 4 7 18 12 32 12 14 0 22
4 19 10 -3 6 0 10 8 10 11 0 16 -15 19 -47z m218 37 c0 -5 -2 -10 -4 -10 -3 0
-8 5 -11 10 -3 6 -1 10 4 10 6 0 11 -4 11 -10z m32 -12 c-7 -7 -12 -8 -12 -2
0 6 3 14 7 17 3 4 9 5 12 2 2 -3 -1 -11 -7 -17z m1447 6 c11 -11 -7 -10 -34 3
l-30 14 30 -6 c16 -4 32 -9 34 -11z m-2707 -46 c-13 -13 -4 -38 14 -38 34 0
54 -75 38 -138 -5 -17 -11 -21 -25 -17 -21 7 -26 -9 -7 -21 7 -5 8 -3 3 6 -5
9 -4 11 4 6 18 -12 5 -23 -29 -24 -28 -1 -30 2 -30 34 0 19 4 33 9 29 5 -3 12
-1 15 4 3 5 -1 12 -9 15 -11 4 -14 13 -9 31 4 15 2 25 -5 25 -6 0 -11 5 -11
11 0 5 3 8 8 6 4 -3 7 16 7 43 0 53 27 103 33 60 2 -12 -1 -27 -6 -32z m1305
30 c-3 -8 -6 -5 -6 6 -1 11 2 17 5 13 3 -3 4 -12 1 -19z m1020 -13 c-3 -19 -1
-38 4 -41 5 -3 9 -18 9 -35 0 -31 9 -36 29 -16 7 6 11 8 10 2 -1 -5 1 -18 6
-28 8 -18 -10 -90 -28 -114 -11 -15 -67 -17 -67 -3 0 6 -5 10 -11 10 -5 0 -7
-4 -4 -10 8 -14 -58 0 -67 14 -12 17 -9 26 8 26 12 0 15 6 11 21 -7 26 11 48
35 41 19 -5 25 13 8 23 -5 3 -10 11 -10 18 0 6 6 2 14 -9 20 -27 51 -7 51 32
0 24 -5 30 -28 32 -22 3 -30 -1 -34 -17 -3 -12 -9 -21 -13 -21 -5 0 -11 -10
-13 -22 -4 -21 -4 -21 -6 3 0 14 -5 29 -10 35 -6 5 -12 21 -15 36 -4 23 0 29
17 33 12 3 40 9 62 14 22 5 41 9 43 10 2 1 2 -15 -1 -34z m-1767 10 c0 -8 -2
-15 -4 -15 -2 0 -6 7 -10 15 -3 8 -1 15 4 15 6 0 10 -7 10 -15z m920 -11 c0
-8 -4 -12 -10 -9 -5 3 -10 10 -10 16 0 5 5 9 10 9 6 0 10 -7 10 -16z m-237 -7
c-2 -4 8 -5 24 -2 15 3 22 2 15 -1 -10 -5 -8 -10 7 -21 12 -8 21 -21 21 -29 0
-12 -4 -12 -27 2 -25 14 -26 14 -9 0 19 -15 18 -16 -20 -16 -39 0 -85 -22 -73
-34 3 -3 20 -1 38 5 17 6 47 8 66 5 33 -7 35 -9 35 -47 l0 -40 -22 21 c-24 22
-68 26 -99 10 -16 -9 -21 -7 -30 17 -6 15 -12 33 -13 38 -1 6 -5 16 -10 23 -4
7 -5 16 -1 20 3 3 10 0 15 -8 8 -12 10 -12 10 -2 0 8 -9 16 -20 19 -11 3 -20
9 -20 13 0 5 -3 15 -6 24 -5 12 5 14 59 13 36 -1 63 -5 60 -10z m-1326 -29
c-3 -8 -6 -5 -6 6 -1 11 2 17 5 13 3 -3 4 -12 1 -19z m935 -10 c-7 -7 -12 -8
-12 -2 0 6 3 14 7 17 3 4 9 5 12 2 2 -3 -1 -11 -7 -17z m642 7 c32 -14 36 -19
34 -47 -2 -20 2 -33 10 -34 6 -1 17 -2 22 -3 6 0 10 -6 10 -12 0 -8 -5 -8 -15
1 -10 9 -15 9 -15 1 0 -6 -8 -12 -17 -12 -10 -1 -2 -4 17 -8 22 -4 36 -12 38
-23 2 -12 -1 -16 -11 -12 -8 3 -18 1 -22 -5 -3 -6 1 -11 9 -11 9 0 16 -7 16
-15 0 -11 -11 -15 -39 -15 -32 0 -44 6 -65 31 -34 41 -33 62 5 76 35 13 35 36
0 41 -16 3 -24 -2 -28 -17 -8 -31 -20 -26 -33 15 -13 38 -8 49 25 57 11 3 21
5 21 6 1 0 18 -6 38 -14z m446 -7 c0 -30 -28 -58 -60 -58 -35 0 -42 -8 -29
-32 14 -27 1 -38 -17 -14 -22 31 -17 42 32 65 25 12 48 31 51 42 7 26 23 24
23 -3z m-1494 -4 c-5 -13 -2 -15 11 -9 50 21 58 14 61 -58 2 -45 -1 -67 -7
-62 -6 3 -25 -2 -43 -11 -32 -17 -33 -16 -18 1 8 11 10 16 4 12 -16 -9 -60 31
-56 51 2 10 12 26 22 37 18 19 20 23 20 45 0 6 3 10 6 10 3 0 3 -7 0 -16z
m2516 -4 c0 -11 1 -26 2 -32 2 -23 -46 -15 -55 9 -6 17 -5 21 6 16 8 -3 18 2
21 11 9 22 24 20 26 -4z m-2762 0 c-8 -5 -10 -10 -3 -10 12 0 12 -17 0 -37 -4
-6 -1 -14 5 -16 10 -4 9 -8 -2 -16 -8 -6 -10 -11 -4 -11 16 0 26 -71 12 -87
-21 -26 -45 -15 -53 24 -5 30 -3 40 12 51 17 13 17 14 -4 7 -13 -3 -23 -2 -23
3 0 5 10 12 22 15 12 4 19 9 15 13 -4 4 -22 -3 -40 -16 -17 -12 -26 -17 -19
-9 18 20 15 34 -5 18 -11 -9 -10 -3 6 19 12 17 25 32 28 32 3 0 0 -7 -7 -15
-22 -26 -7 -25 25 2 22 18 25 24 10 19 -20 -6 -20 -6 -1 9 11 8 25 15 30 15 6
0 4 -5 -4 -10z m1620 6 c0 -2 -7 -7 -16 -10 -8 -3 -12 -2 -9 4 6 10 25 14 25
6z m348 -34 c2 -14 -4 -29 -15 -37 -10 -8 -14 -15 -10 -15 17 0 -14 -39 -35
-43 -14 -2 -6 -5 17 -6 30 -1 36 -4 25 -11 -10 -6 -11 -10 -2 -10 6 0 12 -7
12 -15 0 -17 -45 -21 -55 -5 -3 6 -13 10 -22 10 -9 0 -25 8 -35 17 -18 16 -18
16 -12 -3 7 -17 6 -18 -12 -4 -15 11 -16 11 -6 0 21 -24 13 -30 -38 -29 -37 2
-54 8 -67 23 l-18 21 23 -19 c12 -11 25 -17 28 -14 3 3 -11 16 -30 28 -37 22
-48 47 -21 47 8 0 12 -4 10 -8 -3 -4 6 -10 19 -13 13 -3 31 -8 39 -12 23 -8
28 31 5 50 -18 16 -18 17 -1 41 25 35 74 33 110 -2 15 -16 26 -35 24 -43 -3
-17 -1 -15 24 25 16 26 16 28 1 16 -13 -11 -20 -11 -28 -3 -9 9 -8 12 4 12 9
0 19 7 22 16 9 23 40 13 44 -14z m-524 -69 c1 -18 -2 -33 -5 -33 -13 0 -17 13
-9 39 9 34 -18 58 -48 42 -11 -6 -24 -6 -33 0 -10 6 -8 9 12 9 15 0 32 7 40
16 11 14 14 12 27 -13 8 -15 16 -42 16 -60z m-1710 34 c-20 -12 -25 -6 -17 22
6 23 7 23 20 5 11 -15 11 -19 -3 -27z m2976 3 c0 -5 -7 -10 -16 -10 -8 0 -12
5 -9 10 3 6 10 10 16 10 5 0 9 -4 9 -10z m-1895 -10 c3 -5 0 -7 -8 -4 -10 4
-13 -3 -9 -27 3 -22 1 -30 -7 -25 -9 6 -10 39 -2 64 2 6 21 1 26 -8z m865 6
c0 -3 -4 -8 -10 -11 -5 -3 -10 -1 -10 4 0 6 5 11 10 11 6 0 10 -2 10 -4z
m1020 -21 c14 -8 19 -14 13 -15 -20 0 -15 -18 7 -25 22 -7 18 -25 -5 -25 -18
0 -51 35 -58 61 -6 22 8 24 43 4z m-2970 -3 c0 -14 -11 -21 -26 -15 -8 3 -11
9 -8 14 7 11 34 12 34 1z m1888 -24 c2 -9 -4 -18 -13 -21 -11 -5 -15 0 -15 19
0 28 23 29 28 2z m-2259 -14 c3 -16 1 -17 -13 -5 -19 16 -21 34 -3 29 6 -3 14
-13 16 -24z m566 -10 c-8 -16 -15 -35 -15 -41 0 -7 -5 -13 -11 -13 -16 0 -6
42 15 67 25 30 30 24 11 -13z m1159 27 c3 -5 -1 -11 -9 -15 -22 -8 -18 -23 6
-29 35 -9 16 -32 -29 -34 -48 -3 -57 6 -41 40 15 33 62 57 73 38z m-1824 -11
c0 -5 -2 -10 -4 -10 -3 0 -8 5 -11 10 -3 6 -1 10 4 10 6 0 11 -4 11 -10z
m2395 -40 c0 -31 -14 -37 -49 -24 -23 9 -20 21 12 38 37 20 37 20 37 -14z
m-1959 -7 c-10 -10 -19 5 -10 18 6 11 8 11 12 0 2 -7 1 -15 -2 -18z m1424 -8
c0 -5 -5 -3 -10 5 -5 8 -10 20 -10 25 0 6 5 3 10 -5 5 -8 10 -19 10 -25z
m-1738 2 c-6 -7 -30 -14 -54 -14 l-43 -2 42 12 c23 7 45 15 49 20 12 12 18 -2
6 -16z m1008 -9 c0 -5 -4 -8 -10 -8 -5 0 -10 10 -10 23 0 18 2 19 10 7 5 -8
10 -18 10 -22z m-40 7 c0 -8 -4 -15 -10 -15 -5 0 -7 7 -4 15 4 8 8 15 10 15 2
0 4 -7 4 -15z m2291 -54 c6 10 11 11 19 3 7 -7 5 -16 -6 -30 -11 -13 -17 -15
-20 -6 -3 6 -10 10 -15 6 -11 -6 -12 8 -2 33 7 17 8 17 11 -1 3 -15 6 -16 13
-5z m129 -49 c40 6 69 -22 46 -45 -8 -8 -12 -18 -8 -22 4 -5 1 -5 -5 -1 -20
11 -40 -40 -25 -64 9 -15 7 -19 -11 -24 -39 -10 -103 -6 -122 8 -16 12 -17 17
-6 44 7 17 20 33 28 36 8 4 13 13 10 20 -3 8 -1 28 5 44 11 29 13 29 35 15 13
-9 36 -13 53 -11z m88 -23 l-4 -34 -11 26 c-7 15 -18 29 -25 32 -8 2 -9 8 -4
13 5 5 11 4 13 -3 3 -7 9 -13 15 -13 6 0 7 8 3 18 -4 12 -3 14 5 6 6 -6 10
-27 8 -45z m-228 -46 c0 -7 -4 -13 -10 -13 -13 0 -28 32 -22 49 4 12 8 11 18
-4 8 -10 14 -25 14 -32z m220 -6 c0 -7 -10 -24 -22 -37 -21 -22 -22 -22 -29
-4 -11 27 -10 34 1 34 6 0 10 -7 10 -16 0 -14 2 -14 15 0 8 8 15 19 15 25 0 6
2 11 5 11 3 0 5 -6 5 -13z"/>
<path d="M1100 3180 c0 -5 6 -7 14 -4 18 7 31 -15 18 -28 -8 -8 -16 -7 -29 3
-16 13 -17 12 -4 -3 7 -10 19 -18 26 -18 18 0 27 30 14 46 -13 16 -39 19 -39
4z"/>
<path d="M694 3038 l-19 -23 23 19 c21 18 27 26 19 26 -2 0 -12 -10 -23 -22z"/>
<path d="M580 2995 c0 -8 4 -15 10 -15 5 0 7 7 4 15 -4 8 -8 15 -10 15 -2 0
-4 -7 -4 -15z"/>
<path d="M542 2988 c6 -18 28 -21 28 -4 0 9 -7 16 -16 16 -9 0 -14 -5 -12 -12z"/>
<path d="M2430 2959 c0 -60 12 -99 30 -99 6 0 10 35 10 80 0 73 -2 80 -20 80
-18 0 -20 -7 -20 -61z"/>
<path d="M2392 2988 c-17 -17 -15 -63 3 -78 13 -11 15 -6 15 39 0 56 0 57 -18
39z"/>
<path d="M2540 2956 c0 -2 9 -6 20 -9 11 -3 18 -1 14 4 -5 9 -34 13 -34 5z"/>
<path d="M2374 2821 c0 -11 6 -17 13 -14 6 3 9 11 6 19 -7 20 -19 17 -19 -5z"/>
<path d="M2437 2650 c1 -58 3 -113 3 -122 0 -10 6 -18 14 -18 15 0 33 80 23
97 -3 5 -7 41 -8 79 -2 58 -5 70 -19 70 -14 0 -16 -13 -13 -106z"/>
<path d="M2480 2744 c0 -8 5 -12 10 -9 6 3 10 10 10 16 0 5 -4 9 -10 9 -5 0
-10 -7 -10 -16z"/>
<path d="M2507 2743 c-12 -12 -7 -19 12 -19 15 0 17 3 9 13 -12 15 -13 15 -21
6z"/>
<path d="M2502 2615 c2 -53 7 -96 13 -96 5 -1 20 18 33 42 13 24 27 43 32 42
5 -1 12 11 15 28 5 21 11 29 21 25 27 -10 14 24 -16 39 -32 17 -55 20 -27 4 9
-5 17 -18 17 -27 0 -15 -2 -15 -10 -2 -8 13 -10 13 -10 1 0 -10 -9 -6 -28 12
-15 15 -31 27 -35 27 -4 0 -6 -43 -5 -95z m83 26 c3 -5 1 -12 -5 -16 -5 -3
-10 1 -10 9 0 18 6 21 15 7z"/>
<path d="M2532 2475 c-7 -8 -9 -15 -4 -15 5 0 15 7 22 15 16 19 -1 19 -18 0z"/>
<path d="M4220 2801 c-14 -27 -13 -31 9 -31 22 0 45 25 36 40 -10 16 -33 12
-45 -9z"/>
<path d="M898 2793 c7 -3 16 -2 19 1 4 3 -2 6 -13 5 -11 0 -14 -3 -6 -6z"/>
<path d="M777 2749 c7 -7 15 -10 18 -7 3 3 -2 9 -12 12 -14 6 -15 5 -6 -5z"/>
<path d="M1310 2816 c0 -2 8 -10 18 -17 15 -13 16 -12 3 4 -13 16 -21 21 -21
13z"/>
<path d="M1410 2705 c0 -8 4 -15 10 -15 5 0 7 7 4 15 -4 8 -8 15 -10 15 -2 0
-4 -7 -4 -15z"/>
<path d="M1450 2596 c-20 -26 -8 -61 22 -64 22 -3 29 2 34 22 11 44 -29 74
-56 42z m48 -30 c-4 -28 -48 -36 -48 -9 0 11 5 24 11 30 17 17 40 4 37 -21z"/>
<path d="M1677 2573 c8 -50 13 -55 13 -10 0 20 -4 38 -9 42 -6 3 -7 -10 -4
-32z"/>
<path d="M1306 2443 c5 -5 12 -12 16 -18 4 -6 8 -2 8 8 0 9 -7 17 -17 17 -9 0
-12 -3 -7 -7z"/>
<path d="M1545 2440 c4 -6 11 -8 16 -5 14 9 11 15 -7 15 -8 0 -12 -5 -9 -10z"/>
<path d="M1591 2409 c-1 -9 -11 -21 -23 -27 -13 -6 -18 -11 -12 -11 19 -2 47
26 41 40 -4 11 -6 11 -6 -2z"/>
<path d="M1360 2340 c-12 -8 -9 -10 13 -10 16 0 26 4 22 10 -8 12 -16 12 -35
0z"/>
<path d="M3325 2851 c-3 -5 0 -13 6 -17 7 -4 9 -3 5 4 -3 5 0 13 6 15 9 4 10
6 1 6 -6 1 -14 -3 -18 -8z"/>
<path d="M3330 2760 c0 -5 7 -10 16 -10 8 0 12 5 9 10 -3 6 -10 10 -16 10 -5
0 -9 -4 -9 -10z"/>
<path d="M3110 2750 c0 -5 5 -10 10 -10 6 0 10 5 10 10 0 6 -4 10 -10 10 -5 0
-10 -4 -10 -10z"/>
<path d="M3048 2723 c7 -3 16 -2 19 1 4 3 -2 6 -13 5 -11 0 -14 -3 -6 -6z"/>
<path d="M3112 2710 c0 -14 2 -19 5 -12 2 6 2 18 0 25 -3 6 -5 1 -5 -13z"/>
<path d="M3000 2713 c0 -4 5 -15 10 -23 8 -13 10 -13 10 2 0 9 -4 20 -10 23
-5 3 -10 3 -10 -2z"/>
<path d="M3035 2700 c-3 -5 1 -10 10 -10 9 0 13 5 10 10 -3 6 -8 10 -10 10 -2
0 -7 -4 -10 -10z"/>
<path d="M3065 2670 c-3 -5 -1 -10 4 -10 6 0 11 5 11 10 0 6 -2 10 -4 10 -3 0
-8 -4 -11 -10z"/>
<path d="M3058 2613 c7 -3 16 -2 19 1 4 3 -2 6 -13 5 -11 0 -14 -3 -6 -6z"/>
<path d="M3275 2510 c-4 -6 -14 -9 -22 -8 -9 2 -17 -5 -18 -14 -2 -10 0 -18 3
-18 13 1 67 50 55 50 -6 0 -15 -5 -18 -10z"/>
<path d="M3147 2486 c-3 -8 1 -17 9 -20 9 -4 14 1 14 14 0 23 -15 27 -23 6z"/>
<path d="M3130 2439 c0 -5 5 -7 10 -4 6 3 10 8 10 11 0 2 -4 4 -10 4 -5 0 -10
-5 -10 -11z"/>
<path d="M3087 2283 c-4 -3 -7 -11 -7 -17 0 -6 5 -5 12 2 6 6 9 14 7 17 -3 3
-9 2 -12 -2z"/>
<path d="M3660 2746 c0 -2 7 -6 15 -10 8 -3 15 -1 15 4 0 6 -7 10 -15 10 -8 0
-15 -2 -15 -4z"/>
<path d="M3748 2708 c-3 -31 12 -219 18 -226 1 -2 16 4 34 13 95 49 72 245
-29 245 -15 0 -20 -8 -23 -32z m73 -4 c20 -22 24 -36 24 -89 0 -53 -4 -67 -24
-89 -41 -44 -48 -35 -53 66 -7 143 3 165 53 112z"/>
<path d="M3658 2553 c7 -3 16 -2 19 1 4 3 -2 6 -13 5 -11 0 -14 -3 -6 -6z"/>
<path d="M3631 2524 c0 -11 3 -14 6 -6 3 7 2 16 -1 19 -3 4 -6 -2 -5 -13z"/>
<path d="M3650 2520 c0 -12 28 -25 36 -17 3 3 -4 10 -15 17 -15 7 -21 7 -21 0z"/>
<path d="M3731 2484 c0 -11 3 -14 6 -6 3 7 2 16 -1 19 -3 4 -6 -2 -5 -13z"/>
<path d="M3625 2471 c-3 -5 -2 -12 3 -15 5 -3 9 1 9 9 0 17 -3 19 -12 6z"/>
<path d="M3798 2323 c7 -3 16 -2 19 1 4 3 -2 6 -13 5 -11 0 -14 -3 -6 -6z"/>
<path d="M3808 2293 c7 -3 16 -2 19 1 4 3 -2 6 -13 5 -11 0 -14 -3 -6 -6z"/>
<path d="M1116 2812 c-5 -18 -5 -36 -2 -39 7 -7 19 43 13 59 -2 7 -7 -2 -11
-20z"/>
<path d="M1083 2814 c-3 -8 -1 -20 6 -27 8 -8 11 -4 11 16 0 30 -7 35 -17 11z"/>
<path d="M1138 2795 c-2 -22 1 -40 11 -50 13 -13 16 -11 28 17 12 27 11 33 -3
50 -24 26 -31 23 -36 -17z"/>
<path d="M1101 2698 c0 -28 2 -30 9 -13 12 28 12 45 0 45 -5 0 -10 -15 -9 -32z"/>
<path d="M1127 2693 c-7 -35 -1 -41 20 -21 8 9 13 24 10 32 -10 25 -24 19 -30
-11z"/>
<path d="M3497 2399 c7 -7 15 -10 18 -7 3 3 -2 9 -12 12 -14 6 -15 5 -6 -5z"/>
<path d="M1865 2760 c3 -5 8 -10 11 -10 2 0 4 5 4 10 0 6 -5 10 -11 10 -5 0
-7 -4 -4 -10z"/>
<path d="M1935 2760 c3 -5 8 -10 11 -10 2 0 4 5 4 10 0 6 -5 10 -11 10 -5 0
-7 -4 -4 -10z"/>
<path d="M1843 2745 c0 -8 4 -12 9 -9 5 3 6 10 3 15 -9 13 -12 11 -12 -6z"/>
<path d="M1992 2579 c2 -7 -8 -16 -22 -20 -23 -7 -23 -7 8 -8 32 -1 45 20 22
34 -6 4 -9 1 -8 -6z"/>
<path d="M1160 2460 c8 -5 22 -9 30 -9 10 0 8 3 -5 9 -27 12 -43 12 -25 0z"/>
<path d="M871 2534 c0 -11 3 -14 6 -6 3 7 2 16 -1 19 -3 4 -6 -2 -5 -13z"/>
<path d="M881 2494 c0 -11 3 -14 6 -6 3 7 2 16 -1 19 -3 4 -6 -2 -5 -13z"/>
<path d="M785 2470 c-3 -5 0 -10 7 -10 9 0 9 -3 -2 -10 -12 -8 -12 -10 5 -10
11 0 27 5 35 10 13 9 13 11 0 20 -19 13 -37 13 -45 0z"/>
<path d="M1936 2305 c3 -7 12 -16 19 -19 9 -3 12 0 9 9 -3 7 -12 16 -19 19 -9
3 -12 0 -9 -9z"/>
<path d="M1898 2300 c6 -8 12 -21 12 -29 0 -13 -2 -13 -9 -3 -7 11 -9 11 -14
0 -4 -11 6 -15 40 -17 27 -1 42 2 39 8 -3 5 -15 7 -25 4 -16 -4 -19 -1 -14 19
3 12 2 20 -2 16 -5 -4 -15 -2 -24 4 -13 10 -14 10 -3 -2z"/>
<path d="M1998 2243 c7 -3 16 -2 19 1 4 3 -2 6 -13 5 -11 0 -14 -3 -6 -6z"/>
<path d="M2119 2133 c-13 -16 -12 -17 4 -4 9 7 17 15 17 17 0 8 -8 3 -21 -13z"/>
<path d="M4290 2139 c0 -19 5 -41 10 -49 7 -11 9 -2 6 28 -5 53 -16 68 -16 21z"/>
<path d="M4367 2133 c-10 -9 -9 -51 1 -57 5 -3 6 9 4 26 -4 28 -2 30 17 25 11
-3 19 -1 15 4 -6 11 -28 12 -37 2z"/>
<path d="M4338 2095 c2 -19 6 -35 8 -35 2 0 4 16 4 35 0 19 -4 35 -8 35 -4 0
-6 -16 -4 -35z"/>
<path d="M4276 2051 c-3 -5 1 -11 9 -14 9 -4 12 -1 8 9 -6 16 -10 17 -17 5z"/>
<path d="M1206 2153 c-4 -9 -4 -18 -2 -21 8 -7 36 6 36 17 0 16 -28 20 -34 4z"/>
<path d="M3560 2148 c-12 -22 -12 -22 6 -6 10 10 15 20 12 24 -4 3 -12 -5 -18
-18z"/>
<path d="M3458 2093 c7 -3 16 -2 19 1 4 3 -2 6 -13 5 -11 0 -14 -3 -6 -6z"/>
<path d="M2745 2100 c-8 -13 5 -13 25 0 13 8 13 10 -2 10 -9 0 -20 -4 -23 -10z"/>
<path d="M4139 1915 c-9 -34 6 -48 33 -34 27 14 22 39 -7 39 -14 0 -26 -2 -26
-5z"/>
<path d="M2132 2830 c3 -16 1 -30 -4 -30 -5 0 -6 -5 -3 -11 10 -14 34 20 35
49 0 14 -6 22 -16 22 -12 0 -15 -7 -12 -30z"/>
<path d="M2176 2834 c-12 -31 -7 -45 16 -42 29 4 35 34 10 47 -16 8 -21 7 -26
-5z"/>
<path d="M2308 2413 c7 -3 16 -2 19 1 4 3 -2 6 -13 5 -11 0 -14 -3 -6 -6z"/>
</g>
</svg>
